<?xml version="1.0" encoding="UTF-8" standalone="no"?>
<svg
   xmlns:dc="http://purl.org/dc/elements/1.1/"
   xmlns:cc="http://creativecommons.org/ns#"
   xmlns:rdf="http://www.w3.org/1999/02/22-rdf-syntax-ns#"
   xmlns:svg="http://www.w3.org/2000/svg"
   xmlns="http://www.w3.org/2000/svg"
   xmlns:xlink="http://www.w3.org/1999/xlink"
   xmlns:sodipodi="http://sodipodi.sourceforge.net/DTD/sodipodi-0.dtd"
   xmlns:inkscape="http://www.inkscape.org/namespaces/inkscape"
   enable-background="new 16.7527 15.2888 1395.2473 780.2873"
   version="1.1"
   viewBox="16.7527 15.2888 1395.2473 780.2873"
   xml:space="preserve"
   id="svg38"
   sodipodi:docname="logo-without-border.svg"
   inkscape:version="0.92.3 (2405546, 2018-03-11)"
   inkscape:export-filename="/home/tareq/Desktop/logo.svg.png"
   inkscape:export-xdpi="96"
   inkscape:export-ydpi="96"><metadata
   id="metadata44"><rdf:RDF><cc:Work
       rdf:about=""><dc:format>image/svg+xml</dc:format><dc:type
         rdf:resource="http://purl.org/dc/dcmitype/StillImage" /><dc:title></dc:title></cc:Work></rdf:RDF></metadata><defs
   id="defs42"><inkscape:path-effect
     effect="spiro"
     id="path-effect6147"
     is_visible="true" /><linearGradient
     inkscape:collect="always"
     id="linearGradient4773"><stop
       style="stop-color:#00d1ff;stop-opacity:1;"
       offset="0"
       id="stop4769" /><stop
       style="stop-color:#00d1ff;stop-opacity:0;"
       offset="1"
       id="stop4771" /></linearGradient><linearGradient
     inkscape:collect="always"
     id="linearGradient4761"><stop
       style="stop-color:#008eff;stop-opacity:1;"
       offset="0"
       id="stop4757" /><stop
       style="stop-color:#008eff;stop-opacity:0;"
       offset="1"
       id="stop4759" /></linearGradient><linearGradient
     inkscape:collect="always"
     xlink:href="#linearGradient4773"
     id="linearGradient4775"
     x1="902.24266"
     y1="685.79302"
     x2="878.32379"
     y2="1087.6406"
     gradientUnits="userSpaceOnUse" /><radialGradient
     inkscape:collect="always"
     xlink:href="#linearGradient4761"
     id="radialGradient4820"
     cx="930.59888"
     cy="700.72382"
     fx="930.59888"
     fy="700.72382"
     r="407.96704"
     gradientTransform="matrix(1,0,0,0.64499998,0,264.05571)"
     gradientUnits="userSpaceOnUse" /><inkscape:path-effect
     effect="spiro"
     id="path-effect6147-7"
     is_visible="true" /><inkscape:path-effect
     effect="spiro"
     id="path-effect6147-1"
     is_visible="true" /><inkscape:path-effect
     effect="spiro"
     id="path-effect6147-2"
     is_visible="true" /><inkscape:path-effect
     effect="spiro"
     id="path-effect6147-5"
     is_visible="true" /><inkscape:path-effect
     effect="spiro"
     id="path-effect6147-9"
     is_visible="true" /><inkscape:path-effect
     effect="spiro"
     id="path-effect6147-91"
     is_visible="true" /><inkscape:path-effect
     effect="spiro"
     id="path-effect6147-75"
     is_visible="true" /><inkscape:path-effect
     effect="spiro"
     id="path-effect6147-70"
     is_visible="true" /><inkscape:path-effect
     effect="spiro"
     id="path-effect6147-8"
     is_visible="true" /><inkscape:path-effect
     effect="spiro"
     id="path-effect6147-29"
     is_visible="true" /><inkscape:path-effect
     effect="spiro"
     id="path-effect6147-0"
     is_visible="true" /><inkscape:path-effect
     effect="spiro"
     id="path-effect6147-22"
     is_visible="true" /><inkscape:path-effect
     effect="spiro"
     id="path-effect6147-52"
     is_visible="true" /><inkscape:path-effect
     effect="spiro"
     id="path-effect6147-28"
     is_visible="true" /><inkscape:path-effect
     effect="spiro"
     id="path-effect6147-04"
     is_visible="true" /><inkscape:path-effect
     effect="spiro"
     id="path-effect6147-19"
     is_visible="true" /><inkscape:path-effect
     effect="spiro"
     id="path-effect6147-54"
     is_visible="true" /></defs><sodipodi:namedview
   pagecolor="#ffffff"
   bordercolor="#666666"
   borderopacity="1"
   objecttolerance="10"
   gridtolerance="10"
   guidetolerance="10"
   inkscape:pageopacity="0"
   inkscape:pageshadow="2"
   inkscape:window-width="1366"
   inkscape:window-height="712"
   id="namedview40"
   showgrid="false"
   inkscape:zoom="0.69329794"
   inkscape:cx="507.79307"
   inkscape:cy="407.16369"
   inkscape:window-x="0"
   inkscape:window-y="28"
   inkscape:window-maximized="1"
   inkscape:current-layer="layer2" />
	
	
	
	
	
	
	
	
	
	
	<g
   inkscape:groupmode="layer"
   id="layer3"
   inkscape:label="Layer 3"
   style="display:inline;"><path
     id="path11683-0"
     style="display:inline;fill:#ff0000;fill-opacity:0;stroke:#000000;stroke-width:15.2670908;stroke-linejoin:round;stroke-miterlimit:4;stroke-dasharray:none;stroke-opacity:0"
     d="M 709.91796,89.201629 A 309.08782,309.08782 0 0 0 400.82943,398.28866 309.08782,309.08782 0 0 0 709.91796,707.37718 309.08782,309.08782 0 0 0 1019.0065,398.28866 309.08782,309.08782 0 0 0 709.91796,89.201629 Z"
     inkscape:connector-curvature="0"
     clip-path="none" /><path
     style="fill:#00c6ff;fill-opacity:1;stroke:#00c6ff;stroke-width:0;stroke-miterlimit:4;stroke-dasharray:none;stroke-opacity:1"
     d="m 865.38313,586.79851 c -3.03365,-15.9738 -6.98446,-30.03319 -13.53267,-48.15742 -1.0387,-2.87495 -1.84671,-5.26127 -1.79556,-5.30294 0.0978,-0.0797 8.86987,-1.35033 9.28972,-1.34563 0.38389,0.005 0.61488,1.55422 2.10143,14.09827 2.28663,19.29503 4.34227,30.00369 7.59477,39.56429 0.68061,2.00059 1.08748,3.77567 0.90419,3.94463 -0.1832,0.16895 -1.13022,0.42073 -2.10441,0.5595 l -1.77129,0.25231 z"
     id="path3161"
     inkscape:connector-curvature="0" /><path
     style="fill:none;fill-opacity:1;stroke:#00c6ff;stroke-width:0;stroke-miterlimit:4;stroke-dasharray:none;stroke-opacity:1"
     d="M 665.15687,682.50166 C 629.34896,679.1654 590.5379,667.82836 557.14612,650.95076 429.23566,586.29953 364.61073,438.03199 404.2054,300.06226 437.23649,184.96367 535.71482,100.4666 655.06056,84.821739 c 43.37651,-5.686164 89.88277,-1.14483 132.96992,12.984503 108.25228,35.498588 188.13089,132.086948 203.11633,245.606058 2.79911,21.20412 2.76047,59.21599 -0.0812,79.9287 -6.95184,50.67052 -26.93871,99.23291 -57.9318,140.7578 -10.43341,13.97878 -36.71716,41.14538 -50.89848,52.60809 -60.24409,48.69509 -140.27187,72.95088 -217.07839,65.79477 z m 214.72264,-83.34557 c 1.13205,-7.0795 0.32975,-11.20368 -11.22183,-57.68494 -5.20191,-20.93146 -10.48027,-45.27165 -11.72968,-54.0893 -3.08587,-21.77834 -5.4835,-29.67948 -13.61885,-44.87971 -10.19599,-19.05032 -11.53667,-24.28494 -13.85333,-54.0893 -3.99195,-51.35743 -9.54211,-75.31816 -22.54132,-97.31396 -13.07249,-22.11978 -22.67533,-29.67069 -28.93586,-22.75289 -1.26205,1.39455 -4.27836,7.9157 -6.70292,14.49143 -2.42455,6.57573 -6.19833,15.65032 -8.38616,20.16575 -4.78249,9.87043 -15.90697,21.94489 -20.21834,21.94489 -4.64206,0 -7.57449,-5.37856 -7.44912,-13.66297 0.1769,-11.69027 2.73043,-16.81394 10.50006,-21.0685 9.41257,-5.15421 17.69713,-13.63939 22.09743,-22.63254 3.32682,-6.79919 3.64722,-8.85153 3.03441,-19.43735 -0.63752,-11.01274 -0.45701,-12.01495 2.59673,-14.41701 3.97385,-3.12584 6.96826,-11.5172 5.78796,-16.21987 -0.47398,-1.88847 -2.71282,-4.75164 -4.97519,-6.3626 -4.01725,-2.86053 -4.08315,-3.12202 -2.81895,-11.18374 1.51299,-9.64824 9.42748,-25.5243 13.06309,-26.2039 2.08239,-0.38925 2.47882,0.52625 2.29204,5.29312 -0.17406,4.44208 1.13533,8.02164 5.71016,15.61015 10.40858,17.2653 10.98233,19.34886 11.05242,40.13638 0.0348,10.31303 -0.44166,23.13219 -1.05874,28.48703 -0.62769,5.44704 -0.56678,9.73608 0.13833,9.73608 1.44184,0 6.42631,-16.5843 9.00174,-29.95058 2.29805,-11.9267 1.08245,-35.12938 -2.28479,-43.61087 -1.41728,-3.56989 -4.90975,-10.34079 -7.76103,-15.04644 l -5.1842,-8.55573 0.46516,-17.04654 c 0.25583,-9.3756 0.14943,-17.04654 -0.23645,-17.04654 -0.3859,0 -3.04095,4.18311 -5.90012,9.29579 -6.24925,11.1747 -10.52297,14.47255 -21.34844,16.47375 -10.64597,1.96802 -17.90274,5.76269 -25.91859,13.5532 -8.49825,8.25935 -13.69644,17.34812 -18.19846,31.81905 -3.23584,10.40099 -3.68123,14.4284 -3.76825,34.07397 l -0.0987,22.27885 -11.52036,6.13659 c -16.66963,8.8795 -27.96728,11.31496 -45.27551,9.76015 -33.03326,-2.96741 -37.30981,-1.47345 -61.9507,21.64184 -23.63182,22.16867 -40.22773,32.77654 -77.8013,49.72948 -22.56892,10.18295 -27.74244,13.55021 -27.74244,18.05658 0,10.75079 27.22894,17.04456 43.89215,10.14534 2.0289,-0.84005 1.34407,0.73339 -2.52417,5.79947 -8.33212,10.91224 -7.07087,13.40921 6.2306,12.33508 11.33899,-0.91565 32.0525,-18.40124 46.04397,-38.86866 8.09838,-11.84671 9.43495,-16.81549 4.07878,-15.16323 -4.81087,1.48404 -11.12373,4.83762 -18.13113,9.63182 -10.63738,7.27768 -8.32331,3.19187 2.85386,-5.03887 12.11634,-8.92236 24.10426,-16.16505 25.10295,-15.16634 0.37427,0.37427 -0.0765,3.95954 -1.00151,7.96727 -1.48957,6.45314 -1.36482,7.82986 1.0904,12.03378 l 2.7724,4.74701 -8.68734,4.32283 c -9.32517,4.6402 -21.99442,16.34186 -29.0723,26.85198 -6.08654,9.03806 -6.69184,11.22738 -3.56652,12.90001 8.93642,4.78262 27.71411,-11.36571 40.61849,-34.93084 l 3.77071,-6.88582 3.93567,3.0958 3.93568,3.0958 -4.05788,2.52548 c -5.47601,3.40806 -10.37435,8.93141 -18.31452,20.65134 -7.87849,11.62888 -8.27778,13.97204 -2.38094,13.97204 6.40765,0 12.91154,-6.66967 21.01993,-21.55572 6.58744,-12.09381 7.44329,-13.06912 10.7597,-12.26173 5.3492,1.30228 5.3943,1.90019 0.4361,5.78056 -4.76237,3.72711 -26.71881,35.09428 -28.45967,40.65773 -1.36308,4.35616 1.32078,4.24269 11.28958,-0.47732 7.20044,-3.40924 9.05345,-5.41771 22.00922,-23.85566 10.36325,-14.7484 15.11835,-20.34447 17.77932,-20.92371 4.34854,-0.94659 17.32842,-4.73283 19.84537,-5.78891 0.98403,-0.41289 -4.30892,5.34735 -11.76207,12.8005 -16.55763,16.55762 -26.54302,31.39379 -21.1294,31.39379 2.91159,0 21.3539,-13.51545 27.51262,-20.16262 7.82574,-8.44641 17.45425,-26.0282 14.79025,-27.00719 -1.64492,-0.6045 19.17556,-19.03855 21.61368,-19.13635 2.98945,-0.11986 -0.28249,7.36927 -14.95069,34.22074 -8.81785,16.1419 -15.65025,29.7311 -15.18311,30.19825 0.46713,0.46714 3.50774,-1.55237 6.75691,-4.48778 3.24915,-2.93544 6.94469,-5.13593 8.21228,-4.89002 2.9284,0.56809 5.26055,7.42209 4.09951,12.04805 -1.09106,4.34708 -6.01417,4.79018 -7.32526,0.6593 -1.25453,-3.95266 -3.41633,-3.63818 -11.41628,1.66078 -17.8991,11.85587 -53.20169,50.89058 -68.43167,75.66615 -7.83623,12.74768 -4.95029,16.39761 4.91198,6.2123 5.98672,-6.18279 11.96826,-9.97779 15.7267,-9.97779 3.90064,0 2.53402,6.96852 -4.12234,21.02022 -5.63623,11.89822 -9.82147,18.7738 -24.42247,40.12168 -2.11042,3.08561 -3.83714,6.1687 -3.83714,6.85131 0,2.46153 5.49519,1.15228 14.46622,-3.44664 l 9.14428,-4.68774 33.83632,-51.92573 c 22.25372,-34.15089 35.00305,-55.13507 37.24465,-61.3012 3.47445,-9.55737 3.5035,-9.36376 1.13592,7.5725 -0.59774,4.27584 -0.41119,6.85131 0.49622,6.85131 0.7997,0 5.2037,-6.65298 9.78666,-14.78441 31.27081,-55.48286 47.08292,-64.97309 61.35054,-36.82186 4.71407,9.30127 5.07701,11.21959 2.12263,11.21959 -3.93715,0 -8.54155,15.45913 -9.17337,30.79927 -0.3464,8.41038 0.006,14.80294 0.86255,15.65979 3.57217,3.57217 9.73121,-14.47693 11.34763,-33.25426 l 0.91202,-10.59449 4.72747,9.38677 c 10.68864,21.22303 21.5422,34.28528 44.42038,53.45982 20.00506,16.76653 26.06081,23.63164 28.14425,31.90577 2.24669,8.92242 2.11146,9.37355 -2.80981,9.37355 -3.67264,0 -4.67066,-0.77687 -6.02229,-4.68774 -0.89105,-2.57826 -3.94925,-9.23124 -6.796,-14.78441 -3.78054,-7.37475 -5.94826,-10.09667 -8.04093,-10.09667 -2.70648,0 -2.84527,0.87805 -2.50769,15.8662 0.7058,31.33673 7.30745,62.71588 15.85846,75.37896 4.65888,6.89929 14.10377,14.76987 17.72417,14.76987 3.41924,0 4.56833,-3.60403 3.47455,-10.89774 -1.07189,-7.14792 1.48222,-10.06295 3.70183,-4.22492 3.47952,9.15182 18.22073,26.66171 22.44594,26.66171 0.93353,0 2.10131,-2.52627 2.59506,-5.61395 z m -66.34382,-56.76904 c -1.96794,-36.88665 -11.22765,-79.00332 -16.95267,-77.1071 -4.70962,1.55991 -4.41965,50.31296 0.39118,65.77018 3.34225,10.73872 12.0372,23.23656 16.16605,23.23656 0.56667,0 0.74461,-5.35484 0.39544,-11.89964 z m -29.19305,-11.16024 c 1.67044,-8.16753 4.55227,-61.63541 3.53952,-65.67048 l -0.93253,-3.71549 -4.28886,3.05394 c -4.88092,3.47552 -4.70415,3.70698 -7.1869,-9.41121 -2.47545,-13.07977 -6.10515,-23.91888 -7.81998,-23.35228 -3.6631,1.21033 -6.84853,23.08798 -7.07536,48.59396 -0.23141,26.01946 0.60947,33.17477 3.89861,33.17477 1.04752,0 2.7689,-1.78495 3.8253,-3.96655 1.89656,-3.91664 1.94583,-3.84858 3.91566,5.40893 3.10331,14.58449 6.09685,21.8605 8.78128,21.34354 1.33294,-0.25672 2.75375,-2.57667 3.34326,-5.45913 z m -60.18516,-97.84163 c 4.41617,-8.73024 13.44191,-35.27103 14.68988,-43.19649 0.83665,-5.31342 0.64836,-6.03402 -1.37395,-5.258 -3.42897,1.31583 -15.18664,17.3839 -19.41779,26.5364 -4.21073,9.10835 -5.21362,23.90875 -1.89137,27.91238 2.57686,3.10536 3.88733,2.12263 7.99323,-5.99429 z m 17.40504,5.15041 c 6.49379,-9.21663 11.78462,-37.08055 7.79789,-41.06728 -2.93647,-2.93647 -5.36983,-0.29238 -10.03074,10.89946 -4.4791,10.75527 -7.05347,26.25819 -5.17378,31.15659 1.24553,3.24579 4.753,2.77755 7.40663,-0.98877 z"
     id="path948"
     inkscape:connector-curvature="0"
     transform="translate(16.7527,15.2888)" /><path
     style="fill:none;fill-opacity:1;stroke:#00c6ff;stroke-width:0;stroke-miterlimit:4;stroke-dasharray:none;stroke-opacity:1"
     d="M 665.15687,682.50166 C 629.34896,679.1654 590.5379,667.82836 557.14612,650.95076 429.23566,586.29953 364.61073,438.03199 404.2054,300.06226 437.23649,184.96367 535.71482,100.4666 655.06056,84.821739 c 43.37651,-5.686164 89.88277,-1.14483 132.96992,12.984503 108.25228,35.498588 188.13089,132.086948 203.11633,245.606058 2.79911,21.20412 2.76047,59.21599 -0.0812,79.9287 -6.95184,50.67052 -26.93871,99.23291 -57.9318,140.7578 -10.43341,13.97878 -36.71716,41.14538 -50.89848,52.60809 -60.24409,48.69509 -140.27187,72.95088 -217.07839,65.79477 z m 214.72264,-83.34557 c 1.13205,-7.0795 0.32975,-11.20368 -11.22183,-57.68494 -5.20191,-20.93146 -10.48027,-45.27165 -11.72968,-54.0893 -3.08587,-21.77834 -5.4835,-29.67948 -13.61885,-44.87971 -10.19599,-19.05032 -11.53667,-24.28494 -13.85333,-54.0893 -3.99195,-51.35743 -9.54211,-75.31816 -22.54132,-97.31396 -13.07249,-22.11978 -22.67533,-29.67069 -28.93586,-22.75289 -1.26205,1.39455 -4.27836,7.9157 -6.70292,14.49143 -2.42455,6.57573 -6.19833,15.65032 -8.38616,20.16575 -4.78249,9.87043 -15.90697,21.94489 -20.21834,21.94489 -4.64206,0 -7.57449,-5.37856 -7.44912,-13.66297 0.1769,-11.69027 2.73043,-16.81394 10.50006,-21.0685 9.41257,-5.15421 17.69713,-13.63939 22.09743,-22.63254 3.32682,-6.79919 3.64722,-8.85153 3.03441,-19.43735 -0.63752,-11.01274 -0.45701,-12.01495 2.59673,-14.41701 3.97385,-3.12584 6.96826,-11.5172 5.78796,-16.21987 -0.47398,-1.88847 -2.71282,-4.75164 -4.97519,-6.3626 -4.01725,-2.86053 -4.08315,-3.12202 -2.81895,-11.18374 1.51299,-9.64824 9.42748,-25.5243 13.06309,-26.2039 2.08239,-0.38925 2.47882,0.52625 2.29204,5.29312 -0.17406,4.44208 1.13533,8.02164 5.71016,15.61015 10.40858,17.2653 10.98233,19.34886 11.05242,40.13638 0.0348,10.31303 -0.44166,23.13219 -1.05874,28.48703 -0.62769,5.44704 -0.56678,9.73608 0.13833,9.73608 1.44184,0 6.42631,-16.5843 9.00174,-29.95058 2.29805,-11.9267 1.08245,-35.12938 -2.28479,-43.61087 -1.41728,-3.56989 -4.90975,-10.34079 -7.76103,-15.04644 l -5.1842,-8.55573 0.46516,-17.04654 c 0.25583,-9.3756 0.14943,-17.04654 -0.23645,-17.04654 -0.3859,0 -3.04095,4.18311 -5.90012,9.29579 -6.24925,11.1747 -10.52297,14.47255 -21.34844,16.47375 -10.64597,1.96802 -17.90274,5.76269 -25.91859,13.5532 -8.49825,8.25935 -13.69644,17.34812 -18.19846,31.81905 -3.23584,10.40099 -3.68123,14.4284 -3.76825,34.07397 l -0.0987,22.27885 -11.52036,6.13659 c -16.66963,8.8795 -27.96728,11.31496 -45.27551,9.76015 -33.03326,-2.96741 -37.30981,-1.47345 -61.9507,21.64184 -23.63182,22.16867 -40.22773,32.77654 -77.8013,49.72948 -22.56892,10.18295 -27.74244,13.55021 -27.74244,18.05658 0,10.75079 27.22894,17.04456 43.89215,10.14534 2.0289,-0.84005 1.34407,0.73339 -2.52417,5.79947 -8.33212,10.91224 -7.07087,13.40921 6.2306,12.33508 11.33899,-0.91565 32.0525,-18.40124 46.04397,-38.86866 8.09838,-11.84671 9.43495,-16.81549 4.07878,-15.16323 -4.81087,1.48404 -11.12373,4.83762 -18.13113,9.63182 -10.63738,7.27768 -8.32331,3.19187 2.85386,-5.03887 12.11634,-8.92236 24.10426,-16.16505 25.10295,-15.16634 0.37427,0.37427 -0.0765,3.95954 -1.00151,7.96727 -1.48957,6.45314 -1.36482,7.82986 1.0904,12.03378 l 2.7724,4.74701 -8.68734,4.32283 c -9.32517,4.6402 -21.99442,16.34186 -29.0723,26.85198 -6.08654,9.03806 -6.69184,11.22738 -3.56652,12.90001 8.93642,4.78262 27.71411,-11.36571 40.61849,-34.93084 l 3.77071,-6.88582 3.93567,3.0958 3.93568,3.0958 -4.05788,2.52548 c -5.47601,3.40806 -10.37435,8.93141 -18.31452,20.65134 -7.87849,11.62888 -8.27778,13.97204 -2.38094,13.97204 6.40765,0 12.91154,-6.66967 21.01993,-21.55572 6.58744,-12.09381 7.44329,-13.06912 10.7597,-12.26173 5.3492,1.30228 5.3943,1.90019 0.4361,5.78056 -4.76237,3.72711 -26.71881,35.09428 -28.45967,40.65773 -1.36308,4.35616 1.32078,4.24269 11.28958,-0.47732 7.20044,-3.40924 9.05345,-5.41771 22.00922,-23.85566 10.36325,-14.7484 15.11835,-20.34447 17.77932,-20.92371 4.34854,-0.94659 17.32842,-4.73283 19.84537,-5.78891 0.98403,-0.41289 -4.30892,5.34735 -11.76207,12.8005 -16.55763,16.55762 -26.54302,31.39379 -21.1294,31.39379 2.91159,0 21.3539,-13.51545 27.51262,-20.16262 7.82574,-8.44641 17.45425,-26.0282 14.79025,-27.00719 -1.64492,-0.6045 19.17556,-19.03855 21.61368,-19.13635 2.98945,-0.11986 -0.28249,7.36927 -14.95069,34.22074 -8.81785,16.1419 -15.65025,29.7311 -15.18311,30.19825 0.46713,0.46714 3.50774,-1.55237 6.75691,-4.48778 3.24915,-2.93544 6.94469,-5.13593 8.21228,-4.89002 2.9284,0.56809 5.26055,7.42209 4.09951,12.04805 -1.09106,4.34708 -6.01417,4.79018 -7.32526,0.6593 -1.25453,-3.95266 -3.41633,-3.63818 -11.41628,1.66078 -17.8991,11.85587 -53.20169,50.89058 -68.43167,75.66615 -7.83623,12.74768 -4.95029,16.39761 4.91198,6.2123 5.98672,-6.18279 11.96826,-9.97779 15.7267,-9.97779 3.90064,0 2.53402,6.96852 -4.12234,21.02022 -5.63623,11.89822 -9.82147,18.7738 -24.42247,40.12168 -2.11042,3.08561 -3.83714,6.1687 -3.83714,6.85131 0,2.46153 5.49519,1.15228 14.46622,-3.44664 l 9.14428,-4.68774 33.83632,-51.92573 c 22.25372,-34.15089 35.00305,-55.13507 37.24465,-61.3012 3.47445,-9.55737 3.5035,-9.36376 1.13592,7.5725 -0.59774,4.27584 -0.41119,6.85131 0.49622,6.85131 0.7997,0 5.2037,-6.65298 9.78666,-14.78441 31.27081,-55.48286 47.08292,-64.97309 61.35054,-36.82186 4.71407,9.30127 5.07701,11.21959 2.12263,11.21959 -3.93715,0 -8.54155,15.45913 -9.17337,30.79927 -0.3464,8.41038 0.006,14.80294 0.86255,15.65979 3.57217,3.57217 9.73121,-14.47693 11.34763,-33.25426 l 0.91202,-10.59449 4.72747,9.38677 c 10.68864,21.22303 21.5422,34.28528 44.42038,53.45982 20.00506,16.76653 26.06081,23.63164 28.14425,31.90577 2.24669,8.92242 2.11146,9.37355 -2.80981,9.37355 -3.67264,0 -4.67066,-0.77687 -6.02229,-4.68774 -0.89105,-2.57826 -3.94925,-9.23124 -6.796,-14.78441 -3.78054,-7.37475 -5.94826,-10.09667 -8.04093,-10.09667 -2.70648,0 -2.84527,0.87805 -2.50769,15.8662 0.7058,31.33673 7.30745,62.71588 15.85846,75.37896 4.65888,6.89929 14.10377,14.76987 17.72417,14.76987 3.41924,0 4.56833,-3.60403 3.47455,-10.89774 -1.07189,-7.14792 1.48222,-10.06295 3.70183,-4.22492 3.47952,9.15182 18.22073,26.66171 22.44594,26.66171 0.93353,0 2.10131,-2.52627 2.59506,-5.61395 z m -66.34382,-56.76904 c -1.96794,-36.88665 -11.22765,-79.00332 -16.95267,-77.1071 -4.70962,1.55991 -4.41965,50.31296 0.39118,65.77018 3.34225,10.73872 12.0372,23.23656 16.16605,23.23656 0.56667,0 0.74461,-5.35484 0.39544,-11.89964 z m -29.19305,-11.16024 c 1.67044,-8.16753 4.55227,-61.63541 3.53952,-65.67048 l -0.93253,-3.71549 -4.28886,3.05394 c -4.88092,3.47552 -4.70415,3.70698 -7.1869,-9.41121 -2.47545,-13.07977 -6.10515,-23.91888 -7.81998,-23.35228 -3.6631,1.21033 -6.84853,23.08798 -7.07536,48.59396 -0.23141,26.01946 0.60947,33.17477 3.89861,33.17477 1.04752,0 2.7689,-1.78495 3.8253,-3.96655 1.89656,-3.91664 1.94583,-3.84858 3.91566,5.40893 3.10331,14.58449 6.09685,21.8605 8.78128,21.34354 1.33294,-0.25672 2.75375,-2.57667 3.34326,-5.45913 z m -60.18516,-97.84163 c 4.41617,-8.73024 13.44191,-35.27103 14.68988,-43.19649 0.83665,-5.31342 0.64836,-6.03402 -1.37395,-5.258 -3.42897,1.31583 -15.18664,17.3839 -19.41779,26.5364 -4.21073,9.10835 -5.21362,23.90875 -1.89137,27.91238 2.57686,3.10536 3.88733,2.12263 7.99323,-5.99429 z m 17.40504,5.15041 c 6.49379,-9.21663 11.78462,-37.08055 7.79789,-41.06728 -2.93647,-2.93647 -5.36983,-0.29238 -10.03074,10.89946 -4.4791,10.75527 -7.05347,26.25819 -5.17378,31.15659 1.24553,3.24579 4.753,2.77755 7.40663,-0.98877 z"
     id="path950"
     inkscape:connector-curvature="0"
     transform="translate(16.7527,15.2888)" /></g><g
   inkscape:groupmode="layer"
   id="layer2"
   inkscape:label="Layer 2"
   style="display:inline"><g
     id="g4565"
     transform="matrix(0,-1.8036819,1.0194005,0,695.45821,375.99292)"
     style="stroke:none" /><path
     style="fill:#000bff;fill-opacity:1;stroke:none;stroke-width:40.79670334;stroke-linejoin:round;stroke-miterlimit:4;stroke-dasharray:none;stroke-opacity:1"
     d=""
     id="path6345"
     inkscape:connector-curvature="0"
     transform="translate(16.7527,15.2888)" /><path
     style="fill:#000bff;fill-opacity:1;stroke:none;stroke-width:28.84762764;stroke-linejoin:round;stroke-miterlimit:4;stroke-dasharray:none;stroke-opacity:1"
     d=""
     id="path6353"
     inkscape:connector-curvature="0"
     transform="translate(16.7527,15.2888)" /><path
     style="fill:#000bff;fill-opacity:1;stroke:none;stroke-width:28.84762764;stroke-linejoin:round;stroke-miterlimit:4;stroke-dasharray:none;stroke-opacity:1"
     d=""
     id="path6375"
     inkscape:connector-curvature="0"
     transform="translate(16.7527,15.2888)" /><path
     style="fill:#000bff;fill-opacity:1;stroke:none;stroke-width:28.84762764;stroke-linejoin:round;stroke-miterlimit:4;stroke-dasharray:none;stroke-opacity:1"
     d=""
     id="path6383"
     inkscape:connector-curvature="0"
     transform="translate(16.7527,15.2888)" /><path
     style="fill:#000bff;fill-opacity:1;stroke:none;stroke-width:28.84762764;stroke-linejoin:round;stroke-miterlimit:4;stroke-dasharray:none;stroke-opacity:1"
     d=""
     id="path6395"
     inkscape:connector-curvature="0"
     transform="translate(16.7527,15.2888)" /><path
     style="fill:#000080;fill-opacity:1;stroke:none;stroke-width:28.84762764;stroke-linejoin:round;stroke-miterlimit:4;stroke-dasharray:none;stroke-opacity:1"
     d=""
     id="path6425"
     inkscape:connector-curvature="0"
     transform="translate(16.7527,15.2888)" /><path
     style="fill:#00ffff;fill-opacity:1;stroke:none;stroke-width:28.84762764;stroke-linejoin:round;stroke-miterlimit:4;stroke-dasharray:none;stroke-opacity:1"
     d=""
     id="path6443"
     inkscape:connector-curvature="0"
     transform="translate(16.7527,15.2888)" /><path
     style="fill:#0000ff;fill-opacity:1;stroke:none;stroke-width:28.84762764;stroke-linejoin:round;stroke-miterlimit:4;stroke-dasharray:none;stroke-opacity:1"
     d=""
     id="path6457"
     inkscape:connector-curvature="0"
     transform="translate(16.7527,15.2888)" /><path
     style="fill:#000080;fill-opacity:1;stroke:none;stroke-width:28.84762764;stroke-linejoin:round;stroke-miterlimit:4;stroke-dasharray:none;stroke-opacity:1"
     d=""
     id="path6469"
     inkscape:connector-curvature="0"
     transform="translate(16.7527,15.2888)" /><path
     style="fill:#000080;fill-opacity:1;stroke:none;stroke-width:28.84762764;stroke-linejoin:round;stroke-miterlimit:4;stroke-dasharray:none;stroke-opacity:1"
     d=""
     id="path6485"
     inkscape:connector-curvature="0"
     transform="translate(16.7527,15.2888)" /><path
     style="fill:#000080;fill-opacity:1;stroke:none;stroke-width:28.84762764;stroke-linejoin:round;stroke-miterlimit:4;stroke-dasharray:none;stroke-opacity:1"
     d=""
     id="path6493"
     inkscape:connector-curvature="0"
     transform="translate(16.7527,15.2888)" /><path
     style="fill:#000080;fill-opacity:1;stroke:none;stroke-width:28.84762764;stroke-linejoin:round;stroke-miterlimit:4;stroke-dasharray:none;stroke-opacity:1"
     d=""
     id="path6497"
     inkscape:connector-curvature="0"
     transform="translate(16.7527,15.2888)" /><path
     style="fill:#000080;fill-opacity:1;stroke:none;stroke-width:28.84762764;stroke-linejoin:round;stroke-miterlimit:4;stroke-dasharray:none;stroke-opacity:1"
     d=""
     id="path6499"
     inkscape:connector-curvature="0"
     transform="translate(16.7527,15.2888)" /><path
     style="fill:#000080;fill-opacity:1;stroke:none;stroke-width:28.84762764;stroke-linejoin:round;stroke-miterlimit:4;stroke-dasharray:none;stroke-opacity:1"
     d=""
     id="path6505"
     inkscape:connector-curvature="0"
     transform="translate(16.7527,15.2888)" /><path
     style="fill:#00ffff;fill-opacity:1;stroke:none;stroke-width:28.84762764;stroke-linejoin:round;stroke-miterlimit:4;stroke-dasharray:none;stroke-opacity:1"
     d=""
     id="path6519"
     inkscape:connector-curvature="0"
     transform="translate(16.7527,15.2888)" /><path
     style="fill:#00ffff;fill-opacity:1;stroke:none;stroke-width:28.84762764;stroke-linejoin:round;stroke-miterlimit:4;stroke-dasharray:none;stroke-opacity:1"
     d=""
     id="path6531"
     inkscape:connector-curvature="0"
     transform="translate(16.7527,15.2888)" /><path
     style="fill:#00ffff;fill-opacity:1;stroke:none;stroke-width:28.84762764;stroke-linejoin:round;stroke-miterlimit:4;stroke-dasharray:none;stroke-opacity:1"
     d=""
     id="path6535"
     inkscape:connector-curvature="0"
     transform="translate(16.7527,15.2888)" /><path
     style="fill:#00ffff;fill-opacity:1;stroke:none;stroke-width:20.39835167;stroke-linejoin:round;stroke-miterlimit:4;stroke-dasharray:none;stroke-opacity:1"
     d=""
     id="path6545"
     inkscape:connector-curvature="0"
     transform="translate(16.7527,15.2888)" /><path
     style="fill:#00ffff;fill-opacity:1;stroke:none;stroke-width:20.39835167;stroke-linejoin:round;stroke-miterlimit:4;stroke-dasharray:none;stroke-opacity:1"
     d=""
     id="path6555"
     inkscape:connector-curvature="0"
     transform="translate(16.7527,15.2888)" /><path
     style="fill:#0000ff;fill-opacity:1;stroke:none;stroke-width:7.21190691;stroke-linejoin:round;stroke-miterlimit:4;stroke-dasharray:none;stroke-opacity:1"
     d=""
     id="path6583"
     inkscape:connector-curvature="0"
     transform="translate(16.7527,15.2888)" /><path
     style="fill:#0000ff;fill-opacity:1;stroke:none;stroke-width:20.39835167;stroke-linejoin:round;stroke-miterlimit:4;stroke-dasharray:none;stroke-opacity:1"
     d=""
     id="path6595"
     inkscape:connector-curvature="0"
     transform="translate(16.7527,15.2888)" /><path
     style="fill:#0000ff;fill-opacity:1;stroke:none;stroke-width:20.39835167;stroke-linejoin:round;stroke-miterlimit:4;stroke-dasharray:none;stroke-opacity:1"
     d=""
     id="path6603"
     inkscape:connector-curvature="0"
     transform="translate(16.7527,15.2888)" /><ellipse
     style="fill:none;fill-opacity:1;stroke:none;stroke-width:20;stroke-linejoin:round;stroke-miterlimit:4;stroke-dasharray:none;stroke-opacity:1"
     id="path11671"
     cx="739.31232"
     cy="281.99136"
     rx="290.11456"
     ry="204.4373" /><ellipse
     style="fill:none;fill-opacity:1;stroke:none;stroke-width:15.2670908;stroke-linejoin:round;stroke-miterlimit:4;stroke-dasharray:none;stroke-opacity:1"
     id="path11673"
     cx="446.39713"
     cy="489.57074"
     rx="37.78138"
     ry="67.146072" /><ellipse
     style="fill:none;fill-opacity:1;stroke:none;stroke-width:15.2670908;stroke-linejoin:round;stroke-miterlimit:4;stroke-dasharray:none;stroke-opacity:1"
     id="path11675"
     cx="481.80023"
     cy="379.60388"
     rx="35.813702"
     ry="73.963081" /></g><g
   inkscape:groupmode="layer"
   id="layer1"
   inkscape:label="Layer 1"
   style="display:inline"><g
     id="g14966"
     transform="matrix(0.76335454,0,0,0.76335454,-87.676076,63.088813)"><path
       style="stroke-width:1.03030586"
       inkscape:connector-curvature="0"
       d="m 790.53657,433.24015 c -2.77476,-2.85835 -2.33462,-8.06019 1.06863,-10.65106 7.00892,-5.9306 15.67667,-9.29897 23.87974,-13.13347 29.39823,-12.95167 58.9519,-26.5392 84.90167,-45.97485 11.05514,-7.88312 21.02696,-17.15745 30.59924,-26.74507 8.86069,-9.24309 18.29649,-18.58384 30.27173,-23.64177 12.12887,-5.01851 25.35553,-3.62231 37.6141,-1.72561 12.94332,1.89005 26.39422,2.30185 39.49302,-0.70023 15.2724,-3.77006 29.827,-10.68445 43.0208,-19.46822 4.4419,-2.83627 2.9362,-8.54104 2.316,-12.62761 -4.6948,-18.57569 -1.9608,-38.50237 2.9583,-57.30432 2.2083,-8.28842 4.4942,-16.67992 8.6137,-24.39346 8.1935,-16.19399 22.0538,-30.35574 39.2628,-37.05032 7.4424,-3.12115 15.9422,-1.12661 23.1128,-5.26827 8.2291,-4.58166 13.0723,-13.10027 17.1549,-21.12039 1.581,-3.2894 3.1493,-6.74238 6.1468,-9.09399 0.7019,13.04852 -2.4908,26.21666 -1.8096,39.26538 0.2809,6.79095 4.7645,12.03712 8.1191,17.46818 7.8479,11.96629 12.7178,25.88498 13.8355,40.40279 1.9382,20.23946 -2.3814,40.78517 -8.1769,60.54715 -1.334,4.392 -2.7209,8.80497 -4.6471,13.00831 -0.4203,-10.10459 1.991,-20.21618 2.4739,-30.33976 0.5828,-13.44978 2.4132,-27.17767 -0.6617,-40.26455 -1.7479,-9.67223 -5.4921,-18.81352 -10.5968,-27.06171 -3.584,-6.04272 -8.28,-11.39937 -11.1168,-17.87906 -2.3136,-5.51277 2.0936,-12.3185 -1.8546,-17.27315 -4.9115,1.40842 -7.7994,5.97919 -10.401,9.99469 -6.5929,11.22645 -10.8442,23.98537 -10.9039,36.70364 -0.4982,3.4119 3.393,4.428 5.6561,5.86914 4.2821,1.93314 7.0971,6.52022 6.4896,11.32466 -0.5005,4.31229 -1.9006,8.57192 -3.5299,12.63938 -1.5941,3.7704 -5.8825,4.94768 -8.8988,7.25855 -1.3241,4.40213 0.9288,8.60587 1.3428,12.8786 2.65,13.08078 -1.9522,27.0811 -9.919,38.19811 -5.6848,7.91288 -12.7449,15.53217 -21.9894,19.24376 -3.9778,1.61423 -8.5772,3.21402 -10.6547,7.32675 -4.117,8.72642 -5.6762,18.37957 -5.1253,27.71553 0.5846,5.24307 2.9794,11.21547 8.6382,12.56229 6.0705,0.98473 11.5432,-3.42695 15.6739,-7.53913 11.814,-13.24153 18.6134,-29.76988 24.4438,-45.99211 2.4471,-6.37746 3.6943,-13.24463 7.5165,-19.11362 1.9321,-2.83239 5.1916,-5.45256 8.7633,-4.90401 5.1245,0.81997 8.9057,4.51777 12.2602,8.03555 9.9068,10.57531 15.9226,23.96108 23.9702,35.87427 9.24,17.66194 12.8131,37.76277 16.503,57.38158 3.3663,21.79103 5.6643,43.79704 6.6382,65.9489 0.3253,15.67142 2.1029,31.54361 8.3788,45.76584 4.5681,10.32015 10.691,19.8067 15.7815,29.8353 4.9265,10.20412 8.4025,21.2306 9.3566,32.72149 3.7284,36.70496 14.3571,71.83896 23.0607,107.31905 3.4648,13.80954 7.3481,27.5434 9.3845,41.72489 0.2645,6.06468 -0.2937,12.19873 -0.8805,18.2819 -1.7283,-0.4948 -3.5588,-0.81469 -5.0676,-1.77204 -15.0435,-11.78396 -25.3495,-28.6375 -30.7732,-46.94011 -6.0524,-19.65729 -7.7246,-40.46206 -10.169,-60.9524 -1.174,-7.19155 -2.2611,-14.46579 -4.5908,-21.34942 -2.2331,-6.52647 -6.2377,-12.2377 -11.0634,-17.06106 -10.0883,-10.04151 -21.798,-18.30749 -32.5764,-27.59542 -15.6697,-13.40468 -29.9477,-28.55197 -40.9284,-46.03332 -7.5945,-11.84597 -13.6507,-24.61747 -18.8292,-37.73511 -3.8237,-9.21214 -7.8102,-18.69895 -14.8101,-25.93631 -4.4364,-4.72482 -11.6367,-6.99798 -18.2319,-4.66263 -9.2543,2.63739 -15.7819,10.39475 -21.5775,17.60274 -15.9453,20.77102 -28.5815,43.64831 -41.0767,66.40146 -0.7724,1.37851 -1.9759,2.45425 -3.166,3.46848 -0.4301,-11.1788 2.8056,-22.24991 3.37,-33.40766 0.4666,-6.80844 1.1209,-13.63916 0.7461,-20.41897 -0.3152,-3.10731 -1.2658,-6.37215 -3.7608,-8.37377 -2.3484,-0.75482 -5.0945,-0.37008 -7.2379,1.05242 -5.8654,3.32072 -9.4555,9.32047 -14.9872,13.02675 1.5151,-4.91556 4.2621,-9.36219 6.6624,-13.92823 7.3846,-13.85338 15.3866,-27.39557 22.7006,-41.2892 4.39,-8.15611 9.0659,-16.22292 12.5727,-24.76949 1.0594,-2.37374 1.0087,-4.95158 1.0469,-7.43819 -5.4888,0.91268 -9.6304,5.0352 -13.8191,8.42151 -8.5667,7.04047 -16.5114,15.14921 -26.5711,20.05556 -9.2077,4.44791 -18.98364,7.78609 -28.9894,9.24392 -2.48535,0.56638 -5.59152,0.67836 -7.07088,3.15848 -11.02409,15.54618 -22.05856,31.09245 -33.05253,46.6588 -1.93118,3.02678 -4.75133,5.35621 -7.99746,6.85079 -6.06288,2.90314 -12.10492,6.6553 -18.87512,7.04837 -0.38678,-4.406 2.44194,-8.18838 4.72468,-11.83245 6.87613,-10.44138 13.71275,-20.9233 21.0418,-31.08259 3.14117,-4.23559 6.29572,-8.5327 10.19449,-12.14129 3.26957,-3.03976 7.44707,-4.70708 11.32139,-6.75002 -5.53126,-1.40944 -11.02592,-2.93179 -16.19016,-5.27586 -3.9262,7.36379 -7.3046,14.97806 -11.50494,22.22174 -3.90914,6.8009 -7.61685,13.93749 -13.31341,19.53818 -4.68618,3.38091 -10.57988,5.7913 -16.2551,4.78228 -0.37711,-5.03022 2.7928,-9.42979 5.48286,-13.55869 4.26548,-6.02677 8.77199,-11.89217 13.22812,-17.78778 5.13261,-7.22202 12.2358,-12.95914 20.35327,-16.52679 -6.6498,-5.69581 -14.73196,-10.08856 -19.49807,-17.62383 -2.78754,-4.08601 -2.62005,-9.43868 -1.66923,-14.26691 0.83899,-4.44859 3.56456,-8.45505 3.94165,-13.00147 -2.7173,0.006 -5.51081,0.299 -7.97382,1.68367 -9.32647,4.756 -17.92928,10.83507 -26.41995,16.95397 -11.90929,8.81224 -23.63692,17.9399 -34.51816,28.00063 -5.19566,4.68524 -9.55692,10.54923 -15.94403,13.72154 -9.9457,5.12011 -21.37794,5.84488 -31.95543,4.35137 -8.91188,-1.62211 -18.27169,-4.0585 -24.4576,-10.76159 z"
       id="path2" /><path
       style="fill:#00c6ff;fill-opacity:1;stroke-width:1.03030586"
       inkscape:connector-curvature="0"
       d="m 835.8076,464.42646 c -0.14616,-3.38519 0.3703,-6.96098 2.63388,-9.78635 5.77716,-7.89332 13.21027,-14.44192 20.39836,-21.07 13.74908,-11.87905 28.25176,-23.04921 43.82867,-32.42906 5.30899,-2.96746 10.7773,-6.4378 16.921,-6.74294 0.4631,2.83985 -0.27683,5.68114 -2.01307,8.1126 -11.79205,19.17555 -25.85298,37.66715 -44.16055,51.37069 -10.76413,7.87007 -24.60241,13.91806 -37.60829,10.54506 z"
       id="path4" /><path
       style="fill:#00a2ff;fill-opacity:1;stroke-width:1.03030586"
       inkscape:connector-curvature="0"
       d="m 878.37824,470.797 c -3.35188,-1.65568 -1.46111,-5.98145 -0.0375,-8.59405 4.81556,-8.58996 11.54455,-16.01164 17.91639,-23.55263 7.16774,-8.55138 16.459,-15.13847 26.29256,-20.29841 3.69096,-1.89793 7.6461,-3.47101 11.77891,-3.58271 1.3389,4.23306 -1.92708,8.05038 -3.97906,11.64105 -8.06429,12.47873 -16.29168,25.11251 -27.09851,35.56132 -6.49435,6.43718 -16.03331,10.23349 -24.87277,8.82543 z"
       id="path6" /><path
       style="fill:#00c6ff;fill-opacity:1;stroke:#00c6ff;stroke-width:1.03030586;stroke-opacity:1"
       inkscape:connector-curvature="0"
       d="m 910.85235,668.40933 c -0.0765,-5.45261 4.3417,-9.50619 7.24923,-13.84183 14.1976,-19.1682 26.96153,-39.56049 35.4008,-61.65018 1.73933,-4.83588 3.39187,-10.01879 2.25687,-15.03142 -3.84749,-2.55124 -8.5253,-0.19356 -12.39803,1.60381 -7.56589,4.16596 -12.74638,11.3066 -18.88079,17.16733 -1.26248,1.43441 -3.13659,1.80046 -4.88521,2.14483 0.13188,-2.06804 0.0617,-4.24665 1.06953,-6.2004 3.24373,-6.97862 7.7233,-13.35533 12.09912,-19.73104 10.36707,-14.61897 21.49672,-28.7133 32.70587,-42.73679 10.27231,-11.61001 21.94366,-21.92396 33.52214,-32.24725 8.46242,-7.02923 16.70392,-14.84413 26.88592,-19.28103 1.3387,2.53465 2.3804,5.20518 3.5491,7.82333 2.6796,0.34234 5.3879,0.5207 8.0973,0.67859 -1.103,7.9503 -4.6612,15.42307 -6.8737,23.15904 -1.3895,3.82981 -2.0144,7.92845 -4.1889,11.47939 -28.88802,44.19355 -57.85753,88.3572 -86.66503,132.60113 -2.31446,3.86947 -6.89789,5.1417 -10.68273,7.05077 -5.94766,2.6667 -11.81113,5.94648 -18.26149,7.01172 z"
       id="path8" /><path
       style="fill:#006bff;fill-opacity:1;stroke-width:1.03030586"
       inkscape:connector-curvature="0"
       d="m 968.28812,479.31741 c -0.24073,-5.06223 2.95681,-9.39045 5.83951,-13.42914 10.47351,-14.03681 22.80848,-26.68997 35.89597,-38.3989 4.4042,-3.76697 8.9905,-8.07796 14.8777,-9.07636 0.4228,4.5182 -2.3226,8.5044 -4.3189,12.4424 -6.8331,12.53841 -15.0383,25.14128 -27.39428,33.11888 -8.1499,5.29708 -15.51755,12.41801 -24.9,15.34312 z"
       id="path10" /><path
       style="fill:#006bff;fill-opacity:1;stroke-width:1.03030586"
       inkscape:connector-curvature="0"
       d="m 1076.16,514.2142 c -4.3407,-8.81833 -4.0497,-19.47208 -1.3813,-29.11552 5.1096,-15.04886 14.61,-28.48281 25.3029,-40.42431 1.2793,-1.56758 2.9636,-2.71961 4.9001,-3.30112 0.031,5.11542 -1.7769,10.07474 -2.7475,15.09756 -4.8721,17.62488 -11.0391,35.00653 -18.9561,51.69919 -1.0801,2.37394 -2.6956,4.45636 -4.399,6.42709 z"
       id="path12" /><path
       style="stroke-width:1.03030586"
       inkscape:connector-curvature="0"
       d="m 1101.0401,516.0908 c -1.3589,-2.54469 -2.4599,-5.27603 -2.5435,-8.24234 -1.113,-14.19045 4.0105,-28.24699 10.3334,-41.16925 1.6437,-3.08537 2.6878,-6.63558 5.2886,-9.14705 2.627,-1.13047 4.7368,1.53993 5.4201,3.69214 1.4264,5.2042 0.6234,10.82905 -0.1977,16.18806 -2.1082,10.70208 -5.5373,21.27373 -10.3066,31.25472 -1.74,3.1477 -3.7697,7.55667 -7.9943,7.42372 z"
       id="path14" /><path
       style="stroke-width:1.03030586"
       inkscape:connector-curvature="0"
       d="m 1120.2166,534.78181 c 0.2245,-13.33375 -2.9203,-26.90083 1.6944,-40.093 2.3168,-6.898 4.2578,-14.17092 8.72,-20.18937 0.7321,0.085 2.1959,0.26518 2.9379,0.3603 2.4737,8.61135 0.9557,17.8446 -0.4931,26.71909 -1.8392,11.56914 -3.7919,23.7635 -10.5726,33.94816 -0.5715,-0.18885 -1.7151,-0.55632 -2.2866,-0.74518 z"
       id="path16" /><path
       style="stroke-width:1.03030586"
       inkscape:connector-curvature="0"
       d="m 1135.5693,606.19163 c -2.1523,-9.03395 -2.9493,-18.42892 -3.3862,-27.76599 0.6374,-16.05932 0.5648,-32.23453 3.7173,-48.19547 1.134,-8.79981 3.587,-17.42825 5.5351,-26.12341 0.5139,-0.11753 1.552,-0.35269 2.0654,-0.45998 5.0891,11.97259 7.2831,25.04756 9.6966,37.87484 0.9414,3.66396 0.1586,8.44964 3.7276,10.75802 3.6981,-2.47095 6.0593,-6.87291 10.4777,-8.164 1.8819,5.22024 1.2286,10.96642 1.1563,16.4921 -0.8328,22.20009 -2.1435,44.41503 -4.0336,66.60491 -0.7738,4.60142 -0.6882,9.65493 -3.6317,13.66351 -1.7695,-0.50464 -3.5472,-1.26499 -4.3542,-3.00674 -6.1417,-10.3765 -5.4881,-23.15169 -8.6966,-34.55932 -0.3134,-1.86932 -1.6843,-3.10426 -3.2149,-4.04094 -1.6628,3.68922 -2.6987,7.70999 -5.2342,11.00865 -2.6036,0.86423 -3.2157,-2.32204 -3.8246,-4.08618 z"
       id="path18" /><path
       style="fill:#00a2ff;fill-opacity:1;stroke-width:1.03030586"
       inkscape:connector-curvature="0"
       d="m 1176.5388,598.60155 c -0.4638,-11.97652 0.3001,-24.03657 0.9065,-36.05417 0.4139,-5.08904 0.3224,-10.23457 1.7486,-15.24135 l 2.6045,0.17937 c 5.314,7.57088 7.0853,16.97686 9.6424,25.79203 5.2159,22.14141 9.6647,44.69953 9.826,67.7801 -0.5752,7.76102 1.7453,15.25862 0.7546,23.0339 -6.0521,-4.34082 -10.298,-10.63291 -14.6237,-16.56611 -8.5325,-14.51752 -9.9868,-32.13219 -10.8589,-48.92377 z"
       id="path20" /><path
       style="fill:#00c6ff;fill-opacity:1;stroke-width:1.03030586"
       inkscape:connector-curvature="0"
       d="m 1203.0598,589.57597 c -0.1213,-4.74621 -1.4321,-9.98223 1.0991,-14.46769 3.2708,-1.57667 5.2488,2.09769 6.8615,4.11811 7.6976,12.28492 12.8892,25.98563 18.067,39.54323 6.8097,18.80074 13.3511,37.78824 17.24,57.57906 1.7492,9.22203 4.0645,18.31579 5.1323,27.68767 0.4095,3.30079 0.01,6.69131 -1.2486,9.87523 -2.1679,0.0108 -4.5267,0.32015 -6.3412,-0.96164 -6.7959,-3.97551 -12.901,-9.14456 -17.7023,-15.31871 -6.7137,-9.49105 -10.5113,-20.72927 -13.5623,-31.9645 -6.2522,-24.70969 -8.8064,-50.39654 -9.5455,-76.09076 z"
       id="path22" /></g></g>
	
	
	
	
	
	
	
</svg>